<svg width="756" height="161" viewBox="0 0 756 161" fill="none" xmlns="http://www.w3.org/2000/svg">
<path d="M0 63.9V127H14.5H29V109.5V92H41.8C69.4 91.9 85.2 84.4 93.3 67.2C96.4 60.7 96.5 60.1 96.5 47C96.5 35.2 96.2 32.8 94.2 27.8C91.2 20.3 83.7 12.2 76.2 8.2C65.5 2.5 61.3 1.9 29.3 1.3L0 0.699997V63.9ZM57.7 28.9C69 34.1 71.4 51.8 62.1 61.1C57.4 65.8 53 67 39.8 67H29V47V27H41.3C51.1 27 54.3 27.4 57.7 28.9Z" fill="#ECECEC"/>
<path d="M666 13.5V24H671.5H677V76V128H691H705V65.5V3H685.5H666V13.5Z" fill="#ECECEC"/>
<path d="M717 13.5V24H722.5H728V75.5V127H742H756V65V3H736.5H717V13.5Z" fill="#ECECEC"/>
<path d="M340.4 32.8C331.8 35.8 324.6 42.1 320.2 50.5L318.1 54.5L318 43.7V33H307H296V97V161H310H324V139.4V117.8L328.1 121.5C336.1 128.7 348.2 131.8 361 130C378.4 127.5 390.7 116.1 395.5 97.9C397.4 90.8 397.4 70.2 395.6 63.3C391.5 47.9 381.1 36.7 367.1 32.6C359.8 30.5 346.9 30.6 340.4 32.8ZM358 57.8C361.1 59.7 363.4 62.2 365.5 66C368.2 71 368.5 72.4 368.5 80.5C368.5 88.7 368.2 90 365.4 95C363.2 98.8 360.8 101.4 357.5 103.5C344.8 111.4 327.1 103.4 324 88.4C322.6 81.7 323.4 72.1 325.7 67.6C331.9 55.2 346.4 50.8 358 57.8Z" fill="#ECECEC"/>
<path d="M451.5 33.5C448.8 34.8 445.8 36.5 445 37.2C442.1 39.6 438 45.7 436.6 49.6C435.2 53.4 435.1 53.3 435.1 43.2L435 33H424H413V80.5V128H426.9H440.9L441.2 97.2C441.5 67.3 441.6 66.4 443.8 62.9C449.7 53.3 464.2 53.9 469.2 64C470.8 67.1 471 70.9 471 97.7V128H485.5H500V97.7C500 70.9 500.2 67.1 501.8 64C507 53.6 522.1 53.3 527.4 63.6C529.4 67.2 529.5 69.5 529.8 97.7L530.1 128H544.1H558V97.7C557.9 65.1 557 56.3 552.9 47.5C549.6 40.5 543.4 34.6 537.1 32.5C529.7 30.1 514.2 30.7 508.4 33.8C504.1 36 498.6 41.6 496.8 45.6C496.2 46.9 495.4 48 495 48C494.6 48 493.8 46.9 493.2 45.6C491.2 41.2 485.5 35.7 480.5 33.4C476.4 31.4 473.9 31 466 31C458 31 455.7 31.4 451.5 33.5Z" fill="#ECECEC"/>
<path d="M154.1 33.6C144.9 36.1 137.5 43.2 134.1 52.9L132.2 58.5L132.1 45.7L132 33H121H110V80V127H123.9H137.9L138.2 99.2L138.5 71.5L141.2 66.8C145.1 60.4 151.8 57 161.2 57H168V44.5V32L163.8 32.1C161.4 32.1 157.1 32.8 154.1 33.6Z" fill="#ECECEC"/>
<path d="M586.8 32.7L581 33.1V45V56.8L602.1 56.7L623.1 56.5L626.1 59.8C627.9 61.7 629 64.1 629 65.9V68.7L615.1 69.3C594.7 70.2 586.1 72.7 578.3 80.3C572.6 85.8 570.6 91.8 571.2 101.9C571.8 111.2 574.1 116.2 580.5 121.8C587 127.5 593.3 129.5 605 129.5C618.3 129.4 624.6 126.5 631.1 117.6L634 113.7V120.8V128H645.6H657.2L656.8 93.7C656.4 61.2 656.3 59.2 654.2 53.9C649.8 42.8 640.3 35.6 626.6 33.1C621.1 32.1 600.2 31.9 586.8 32.7ZM629.5 92.2C628.2 103.9 624.1 108.7 614.7 109.7C603.1 110.9 595.6 101.5 600.5 92C603 87.1 606.2 86.1 618.8 86H630.2L629.5 92.2Z" fill="#ECECEC"/>
</svg>
